<svg xmlns="http://www.w3.org/2000/svg" xmlns:xlink="http://www.w3.org/1999/xlink" viewBox="0 0 271 374.5"><defs><style>.cls-1{fill:url(#linear-gradient);}.cls-2{fill:url(#linear-gradient-2);}.cls-3{fill:url(#linear-gradient-3);}.cls-4{fill:url(#linear-gradient-4);}.cls-5{fill:url(#linear-gradient-5);}.cls-6{fill:#fff;}.cls-7{fill:url(#linear-gradient-6);}</style><linearGradient id="linear-gradient" x1="121.95" y1="341.78" x2="149.05" y2="368.89" gradientUnits="userSpaceOnUse"><stop offset="0" stop-color="#fff"/><stop offset="0.19" stop-color="#fcfffd"/><stop offset="0.36" stop-color="#f1fff7"/><stop offset="0.51" stop-color="#dfffee"/><stop offset="0.66" stop-color="#c6ffe0"/><stop offset="0.8" stop-color="#a6ffcf"/><stop offset="0.87" stop-color="#94ffc5"/></linearGradient><linearGradient id="linear-gradient-2" x1="45.22" y1="39.15" x2="225.78" y2="219.7" xlink:href="#linear-gradient"/><linearGradient id="linear-gradient-3" x1="132" y1="188" x2="132" y2="50" gradientUnits="userSpaceOnUse"><stop offset="0" stop-color="#3c3"/><stop offset="0.15" stop-color="#35d44c"/><stop offset="0.38" stop-color="#38dd6a"/><stop offset="0.6" stop-color="#3ae480"/><stop offset="0.81" stop-color="#3be98e"/><stop offset="1" stop-color="#3bea92"/></linearGradient><linearGradient id="linear-gradient-4" x1="16.74" y1="262.74" x2="49.26" y2="295.26" xlink:href="#linear-gradient"/><linearGradient id="linear-gradient-5" x1="206.95" y1="247.89" x2="269.18" y2="310.11" xlink:href="#linear-gradient"/><linearGradient id="linear-gradient-6" x1="97.3" y1="253.09" x2="173.7" y2="329.49" xlink:href="#linear-gradient"/></defs><g id="Capa_2" data-name="Capa 2"><g id="Capa_2-2" data-name="Capa 2"><path class="cls-1" d="M154.67,355.33A19.17,19.17,0,1,0,135.5,374.5,19.17,19.17,0,0,0,154.67,355.33Z"/><path class="cls-2" d="M271,139C271,73.28,210.33,0,135.5,0S0,73.28,0,139s60.67,94,135.5,94S271,204.72,271,139Z"/><path class="cls-3" d="M225.67,139c0-38.11-41.94-89-93.67-89s-93.67,50.89-93.67,89S80.27,188,132,188,225.67,177.11,225.67,139Z"/><path class="cls-4" d="M64.11,280.41a23,23,0,1,0-32.53-32.52c-9,9-38.68,53.24-29.69,62.22S55.13,289.4,64.11,280.41Z"/><path class="cls-5" d="M207,280.41a23,23,0,1,1,32.53-32.52c9,9,38.68,53.24,29.7,62.22S215.93,289.4,207,280.41Z"/><path class="cls-6" d="M159,149c-.26,12-10.68,23-23.49,23S112.27,161,112,149Z"/><ellipse class="cls-6" cx="86" cy="126" rx="16" ry="28.67"/><ellipse class="cls-6" cx="185" cy="126" rx="16" ry="28.67"/><path class="cls-7" d="M189.33,286.33c0-29.45-24.1-43.33-53.83-43.33s-53.83,13.88-53.83,43.33,24.1,63.34,53.83,63.34S189.33,315.79,189.33,286.33Z"/></g></g></svg>